<svg width="920" height="916" viewBox="0 0 920 916" fill="none" xmlns="http://www.w3.org/2000/svg">
<g clip-path="url(#clip0_8504_2126)">
<path d="M-501.154 1013.56C-302.58 984.76 -98.4191 988.3 100.309 1015C178.503 1025.49 256.749 1031.26 335.122 1019.1C375.898 1012.77 415.674 1002.12 454.579 988.402C507.478 969.756 556.25 935.489 608.713 918.356C755.952 870.265 895.681 992.968 1035.31 1014.9C1099.38 1024.95 1157.84 1004.1 1220.97 996.892C1291.27 988.864 1355.29 1002.61 1421.05 1027.47" stroke="url(#paint0_linear_8504_2126)" stroke-miterlimit="10"/>
<path d="M-501.154 980.631C-306.758 946.544 -108.158 957.214 85.5465 991.711C169.61 1006.69 253.801 1016.56 338.377 999.38C445.763 977.553 524.957 912.944 623.27 871.65C782.709 804.681 909.675 967.14 1058.4 991.839C1117.12 1001.59 1165.53 976.707 1221.73 965.857C1293.88 951.93 1356.21 972.423 1421.03 1003.74" stroke="url(#paint1_linear_8504_2126)" stroke-miterlimit="10"/>
<path d="M-501.154 946.287C-306.604 906.327 -115.77 929.975 75.91 973.244C160.23 992.275 244.78 1002.69 329.843 981.631C374.002 970.705 415.726 952.879 456.015 931.95C516.32 900.633 569.68 848.309 630.19 820.327C792.832 745.099 908.88 934.797 1053.56 966.293C1119.4 980.631 1163.2 949.134 1223.91 933.668C1296.08 915.304 1359 944.928 1421.03 979.99" stroke="url(#paint2_linear_8504_2126)" stroke-miterlimit="10"/>
<path d="M-501.154 911.072C-310.448 865.75 -135.53 903.582 49.2557 953.931C135.062 977.297 220.817 991.429 308.186 967.191C354.421 954.367 397.452 933.232 438.766 909.148C503.505 871.419 559.351 811.273 624.526 777.057C795.702 687.21 897.219 907.507 1045.15 942.594C1114.68 959.086 1155.41 921.28 1217.33 901.761C1292.27 878.139 1358.88 917.381 1421 956.239" stroke="url(#paint3_linear_8504_2126)" stroke-miterlimit="10"/>
<path d="M-501.154 875.471C-319.034 825.251 -164.363 874.856 8.22357 931.642C93.8247 959.804 179.195 980.887 268.41 957.804C404.142 922.691 492.613 815.838 606.688 743.842C791.935 626.961 874.486 887.244 1036.1 920.382C1106.07 934.745 1145.64 890.091 1207.48 868.521C1285.81 841.205 1358.11 890.399 1421.03 932.437" stroke="url(#paint4_linear_8504_2126)" stroke-miterlimit="10"/>
<path d="M-501.154 840.051C-324.442 782.931 -188.761 847.129 -26.4782 910.764C61.1476 945.108 149.773 972.962 243.14 944.569C381.562 902.479 471.777 787.83 586.21 708.088C780.761 572.535 844.628 862.185 1011.73 896.247C1082.85 910.738 1126.75 861.185 1187.65 836.998C1273.66 802.834 1352.62 860.98 1421.03 908.763" stroke="url(#paint5_linear_8504_2126)" stroke-miterlimit="10"/>
<path d="M-501.154 805.271C-421.986 775.082 -344.714 768.131 -262.829 792.498C-187.224 814.992 -122.305 860.415 -50.9539 892.553C33.3144 930.513 119.889 963.805 212.103 933.566C358.573 885.526 446.737 755.076 566.271 668.538C759.822 528.393 816.129 827.123 975.029 867.418C1055.48 887.808 1102.1 828.688 1170.5 801.654C1262.95 765.105 1349.32 833.33 1421.03 885.013" stroke="url(#paint6_linear_8504_2126)" stroke-miterlimit="10"/>
<path d="M-501.154 771.697C-429.905 739.405 -358.913 729.351 -283.666 754.589C-209.547 779.443 -149.344 831.766 -81.0681 867.982C-1.64366 910.123 80.0875 952.417 171.481 925.435C324.717 880.242 420.903 733.737 539.822 638.939C742.599 477.275 776.25 802.373 942.377 839.794C1027.62 859.005 1080.7 790.446 1153.89 763.72C1252.36 727.786 1346.8 806.297 1421 861.236" stroke="url(#paint7_linear_8504_2126)" stroke-miterlimit="10"/>
<path d="M-501.154 739.815C-336.487 651.327 -237.585 756 -103.468 840.589C-27.2983 888.629 54.7147 944.21 148.056 913.277C299.216 863.186 398.657 712.576 513.244 612.418C587.21 547.784 658.023 532.779 721.378 614.547C776.327 685.44 811.618 787.548 909.393 808.092C994.533 825.969 1054.66 755.795 1127.7 727.196C1235.19 685.081 1341.6 777.16 1421.03 837.511" stroke="url(#paint8_linear_8504_2126)" stroke-miterlimit="10"/>
<path d="M-501.154 710.165C-341.665 609.853 -242.275 714.013 -116.488 808.554C-49.3906 858.979 26.574 928.821 117.224 905.147C172.403 890.732 221.329 849.771 263.464 813.607C344.451 744.124 411.676 662.151 488.564 588.745C562.273 518.364 634.931 490.664 698.133 583.512C745.239 652.712 781.376 759.616 876.075 774.723C966.11 789.087 1032 711.781 1110.97 685.055C1224.86 646.48 1339.68 750.152 1421.03 813.709" stroke="url(#paint9_linear_8504_2126)" stroke-miterlimit="10"/>
<path d="M-501.154 683.286C-438.978 638.529 -370.369 610.443 -294.61 637.708C-227.154 661.997 -174.717 718.424 -122.869 765.438C-64.4349 818.429 9.37683 912.508 99.0786 894.015C149.568 883.602 193.983 844.924 231.709 811.991C314.978 739.277 387.969 655.046 462.832 574.022C532.902 498.153 610.558 443.573 675.912 549.169C719.917 620.241 754.081 732.659 853.88 736.609C942.454 740.123 1009.01 669.333 1088.85 643.222C1211.3 603.185 1335.53 720.861 1421.05 789.984" stroke="url(#paint10_linear_8504_2126)" stroke-miterlimit="10"/>
<path d="M-501.154 658.612C-437.338 608.853 -366.243 575.818 -285.639 604.493C-217.62 628.68 -161.287 683.824 -111.003 733.403C-58.7196 784.983 11.4528 886.295 97.0539 869.008C144.955 859.338 187.089 820.583 222.406 789.138C303.163 717.193 375.283 635.169 448.249 555.581C515.064 482.713 593.54 416.283 659.817 521.391C703.182 590.155 736.115 699.906 834.043 701.265C921.849 702.471 995.071 638.683 1077.06 616.83C1204.67 582.794 1329.38 694.366 1421.03 765.644" stroke="url(#paint11_linear_8504_2126)" stroke-miterlimit="10"/>
<path d="M-501.154 631.116C-430.751 575.689 -355.632 545.886 -269.57 584.359C-198.398 616.189 -136.068 676.412 -80.9913 729.735C-31.5784 777.596 29.6494 858.364 107.562 833.202C155.104 817.839 196.443 776.801 231.914 743.816C303.009 677.72 369.081 606.134 436.152 536.011C500.071 469.145 577.625 404.1 646.336 497.333C695.211 563.66 726.324 669.743 823.894 674.591C910.803 678.9 994.84 621.524 1078.62 606.134C1205.33 582.845 1323.17 670.256 1421.05 737.61" stroke="url(#paint12_linear_8504_2126)" stroke-miterlimit="10"/>
<path d="M-501.154 600.569C-425.446 542.757 -348.302 517.339 -259.857 562.993C-192.093 597.952 -129.558 654.251 -73.8151 705.626C-21.865 753.512 41.9258 836.024 120.428 799.5C161.408 780.443 195.136 744.15 227.326 713.449C295.039 648.814 359.086 580.281 425.209 514.056C493.613 445.548 571.115 392.429 642.082 483.508C690.931 546.219 726.119 644.941 818.743 649.045C903.96 652.841 988.612 611.982 1071.78 598.389C1200.15 577.408 1314.13 642.915 1421.05 706.036" stroke="url(#paint13_linear_8504_2126)" stroke-miterlimit="10"/>
<path d="M-501.154 567.533C-413.836 504.489 -330.542 490.228 -237.559 548.886C-170.744 591.027 -108.978 648.121 -49.1856 699.598C0.739814 742.585 56.8931 810.067 126.758 770.979C164.176 750.049 195.316 712.73 225.122 682.542C288.58 618.241 350.372 552.375 415.675 489.92C483.335 425.208 560.786 378.502 632.804 460.27C686.574 521.314 723.813 618.677 816.206 627.5C897.629 635.271 986.357 603.416 1066.45 591.002C1194.44 571.175 1307.05 616.445 1421 671.718" stroke="url(#paint14_linear_8504_2126)" stroke-miterlimit="10"/>
<path d="M-501.154 532.625C-406.557 468.939 -319.572 462.117 -224.77 528.752C-153.24 579.024 -88.9619 642.555 -20.9423 697.649C25.8307 735.506 77.5758 787.419 136.036 743.919C174.684 715.167 206.234 671.846 238.321 636.554C292.578 576.92 348.193 518.082 407.883 463.861C481.029 397.405 560.351 366.011 634.009 446.112C687.932 504.745 729.246 596.26 817.846 606.186C901.704 615.573 992.38 593.541 1075.44 582.127C1197.59 565.353 1306.31 592.669 1421.03 635.169" stroke="url(#paint15_linear_8504_2126)" stroke-miterlimit="10"/>
<path d="M-501.154 496.384C-393.307 428.902 -301.632 436.084 -202.627 515.184C-127.508 575.202 -63.4866 645.043 14.8102 701.676C68.5287 740.508 107.254 762.438 156.283 708.319C239.603 616.343 307.084 511.516 404.705 432.211C476.364 374.014 555.199 352.315 626.602 420.053C686.933 477.275 727.529 565.122 814.616 585.744C895.015 604.749 995.917 586 1076.75 574.971C1196.05 558.684 1303.72 568.251 1421.05 597.183" stroke="url(#paint16_linear_8504_2126)" stroke-miterlimit="10"/>
<path d="M-501.154 459.424C-380.39 388.916 -282.051 411.82 -180.227 502.078C-107.287 566.738 -46.6227 641.607 36.1592 694.725C96.9257 733.737 128.911 740.636 170.481 678.515C236.348 580.101 302.65 479.507 398.606 406.921C476.185 348.211 554.789 335.028 630.6 402.715C693.724 459.09 738.652 549.784 827.918 569.739C907.086 587.436 999.479 579.024 1079.29 568.149C1195.16 552.349 1304 545.219 1421.05 558.274" stroke="url(#paint17_linear_8504_2126)" stroke-miterlimit="10"/>
<path d="M-501.154 422.336C-369.523 349.622 -266.546 385.453 -162.21 484.944C-88.3724 555.35 -27.5034 641.35 63.4029 691.262C130.884 728.325 154.566 709.063 186.756 645.531C237.963 544.501 302.727 442.393 397.58 376.579C477.876 320.844 559.095 319.125 634.521 383.17C700.311 439.059 748.237 527.393 836.376 552.17C1025.42 605.314 1231.14 525.88 1421.05 519.288" stroke="url(#paint18_linear_8504_2126)" stroke-miterlimit="10"/>
<path d="M-501.154 385.684C-435.672 350.776 -374.111 330.052 -300.837 355.47C-240.225 376.502 -190.581 420.643 -146.115 465.605C-72.7643 539.832 -10.05 639.709 87.6736 683.824C160.973 716.911 178.324 672.334 203.056 610.136C243.37 508.669 304.239 404.715 399.349 345.313C606.637 215.812 681.448 477.84 846.371 534.651C1038.97 601.005 1232.7 517.287 1421.05 480.789" stroke="url(#paint19_linear_8504_2126)" stroke-miterlimit="10"/>
<path d="M-501.154 350.058C-432.853 313.893 -369.908 293.733 -295.302 321.203C-232.715 344.236 -182.124 391.301 -136.786 438.982C-65.4856 513.953 8.24919 643.735 114.61 673.59C189.062 694.494 200.8 624.781 219.663 568.662C252.674 470.427 309.57 362.113 404.757 310.148C602.357 202.27 701.874 444.83 851.061 513.389C1046.79 603.339 1236.32 511.106 1421.03 443.445" stroke="url(#paint20_linear_8504_2126)" stroke-miterlimit="10"/>
<path d="M-501.154 316.073C-432.186 278.524 -370.062 258.133 -294.148 284.73C-231.203 306.788 -179.766 356.008 -135.017 403.971C-62.4102 481.815 15.4253 629.68 128.321 651.738C205.055 666.742 215.819 590.027 232.58 532.42C261.362 433.596 313.184 324.204 412.65 278.241C610.532 186.804 717.252 419.668 863.209 494.973C939.199 534.164 1037.59 554.247 1122.24 540.602C1229.55 523.315 1327.68 459.68 1421.05 408.049" stroke="url(#paint21_linear_8504_2126)" stroke-miterlimit="10"/>
<path d="M-501.154 284.269C-427.701 241.769 -356.709 217.275 -275.388 254.003C-214.365 281.576 -165.952 332.258 -122.203 381.452C-56.6436 455.166 25.9845 610.469 136.266 622.114C219.279 630.885 229.761 540.166 247.548 478.917C275.048 384.248 324.563 282.756 424.235 246.232C620.63 174.236 734.193 390.121 875.896 474.48C947.503 517.108 1041.1 546.296 1124.86 535.857C1237.06 521.853 1334.17 440.598 1421 375.065" stroke="url(#paint22_linear_8504_2126)" stroke-miterlimit="10"/>
<path d="M-501.154 255.26C-431.802 211.042 -363.526 180.263 -281.59 213.376C-215.928 239.922 -163.645 296.272 -118.538 348.929C-54.0551 424.208 27.0353 578.767 141.597 581.486C223.277 583.41 238.398 491.382 257.671 429.928C287.478 334.976 334.61 242.872 439.151 216.018C639.34 164.566 750.493 361.959 893.734 456.654C963.855 503.027 1057.38 541.269 1142.8 528.932C1254.51 512.773 1344.27 419.848 1421.03 345.313" stroke="url(#paint23_linear_8504_2126)" stroke-miterlimit="10"/>
<path d="M-501.154 229.637C-437.492 183.444 -371.369 144.74 -290.406 171.876C-227.308 193.011 -177.613 244.77 -135.145 293.861C-65.5882 374.244 4.37921 517.236 124.118 526.367C215.153 533.292 238.808 444.753 265.001 374.706C300.728 279.139 350.525 198.217 459.936 183.418C653.897 157.18 765.665 324.076 900.423 429.133C967.981 481.789 1059.45 532.215 1147.85 523.597C1265.1 512.158 1351.39 403.048 1421.03 319.408" stroke="url(#paint24_linear_8504_2126)" stroke-miterlimit="10"/>
<path d="M-501.154 209.426C-437.799 165.182 -372.471 128.761 -293.123 154.615C-231.331 174.749 -182.149 224.225 -140.194 271.829C-72.6105 348.468 -1.07978 495.588 115.225 499.615C205.157 502.719 235.938 423.003 268.179 352.93C309.519 263.134 365.467 180.93 471.572 166.593C658.741 141.303 775.66 297.221 908.496 396.944C973.671 445.856 1065.6 495.614 1149.31 493.973C1266.33 491.664 1353.01 380.272 1421.03 298.966" stroke="url(#paint25_linear_8504_2126)" stroke-miterlimit="10"/>
<path d="M-501.154 195.601C-438.799 152.896 -374.418 117.475 -296.634 141.021C-236.534 159.206 -188.07 205.527 -146.781 250.874C-80.2736 323.947 -9.05047 469.529 103.487 470.222C191.728 470.76 229.3 400.483 267.82 332.027C314.875 248.412 376.641 168.183 478.978 154.127C659.381 129.376 781.247 269.213 914.16 362.292C978.694 407.485 1069.63 457.91 1149.49 465.041C1265.92 475.429 1354.01 362.933 1421 284.551" stroke="url(#paint26_linear_8504_2126)" stroke-miterlimit="10"/>
<path d="M-501.154 187.035C-441.336 146.125 -377.391 110.755 -302.683 129.735C-238.994 145.894 -188.403 194.088 -145.038 240.743C-79.1203 311.662 -13.0229 443.393 97.1052 438.494C180.425 434.801 222.893 371.5 266.411 309.199C319.848 232.664 384.356 160.899 482.208 146.997C659.894 121.733 784.374 242.615 922.618 328.846C986.485 368.704 1067.52 415.975 1141.11 435.032C1260.38 465.913 1351.21 354.059 1421.03 275.061" stroke="url(#paint27_linear_8504_2126)" stroke-miterlimit="10"/>
<path d="M-501.154 182.623C-442.976 142.329 -380.39 106.19 -306.912 121.143C-245.735 133.608 -196.015 176.493 -153.393 219.557C-86.5528 287.065 -24.3254 408.306 82.3684 403.561C163.305 399.97 211.975 346.672 261.49 289.245C320.821 220.455 389.302 155.102 483.387 141.406C653.564 116.629 783.964 213.273 923.822 290.168C993.226 328.333 1066.22 374.988 1139.08 405.869C1256.38 455.602 1348.6 347.98 1421 269.47" stroke="url(#paint28_linear_8504_2126)" stroke-miterlimit="10"/>
<path d="M-501.154 181.264C-378.75 94.4172 -272.876 94.8532 -161.723 197.833C-93.4726 261.057 -35.474 369.576 67.4779 365.883C145.775 363.062 200.211 319.869 255.39 269.162C320.411 209.426 392.045 151.639 482.387 138.2C644.542 114.064 781.837 183.957 922.951 250.259C1000.63 286.757 1063.47 332.54 1135.83 376.938C1250.08 447.035 1343.34 346.954 1421.05 266.802" stroke="url(#paint29_linear_8504_2126)" stroke-miterlimit="10"/>
<path d="M-501.154 181.854C-387.233 98.3415 -282.384 82.1315 -169.565 175.082C-99.521 232.792 -45.5718 327.333 53.2026 325.384C217.664 322.152 318.95 160.95 479.696 136.635C633.676 113.346 778.326 154.64 919.952 209.349C1006.53 242.795 1061.04 290.168 1131.26 347.955C1241.42 438.597 1335.04 349.93 1421.03 265.879" stroke="url(#paint30_linear_8504_2126)" stroke-miterlimit="10"/>
<path d="M-501.154 183.29C-396.972 103.83 -292.944 70.1792 -179.151 148.895C-108.799 197.551 -57.2074 278.857 33.6989 281.986C197.161 287.654 318.797 159.514 475.672 135.019C618.811 112.679 771.791 125.067 909.88 166.516C1008.19 196.037 1058.4 249.72 1127.7 321.383C1153.59 348.16 1182.7 376.04 1221.58 380.246C1298.93 388.582 1371.28 311.867 1421.03 265.802" stroke="url(#paint31_linear_8504_2126)" stroke-miterlimit="10"/>
<path d="M-501.154 184.47C-404.225 107.575 -300.684 58.7142 -184.353 123.092C-112.387 162.925 -62.3333 230.535 23.4984 235.536C183.193 244.847 317.72 159.206 471.341 135.327C609.148 113.91 765.306 96.0587 902.934 125.606C1008.81 148.331 1056.43 211.709 1120.6 292.707C1145.18 323.742 1173.01 359.445 1213.64 369.192C1292.11 388.018 1369.54 310.636 1421 265.52" stroke="url(#paint32_linear_8504_2126)" stroke-miterlimit="10"/>
<path d="M-501.154 184.265C-406.557 106.293 -301.427 45.9411 -179.638 97.9567C-113.233 126.324 -63.8197 178.314 10.0689 185.547C168.867 201.116 313.261 158.872 468.317 136.096C550.022 124.093 630.523 112.192 711.537 95.8535C774.507 83.1574 835.709 76.5657 899.731 85.7479C1010.35 101.599 1057.07 180.699 1114.43 266.879C1137.39 301.377 1164.99 344.21 1206.72 357.932C1286.68 384.247 1366.44 309.353 1421.03 263.878" stroke="url(#paint33_linear_8504_2126)" stroke-miterlimit="10"/>
<path d="M-501.154 181.597C-410.043 104.087 -304.861 32.2704 -180.33 65.4855C-114.309 83.1061 -61.0262 124.093 7.5828 132.762C164.1 152.511 309.109 157 465.497 135.199C548.305 123.657 625.935 106.652 704.924 79.2588C765.742 58.1756 824.099 40.8884 889.3 45.5051C1005.4 53.7127 1052.56 147.151 1104.97 237.896C1127.29 276.549 1154.25 326.281 1197.51 345.082C1279.02 380.503 1363 306.07 1421.08 259.98" stroke="url(#paint34_linear_8504_2126)" stroke-miterlimit="10"/>
<path d="M-501.154 175.364C-411.324 97.1359 -306.553 17.2403 -180.535 29.3465C-112.874 35.8356 -50.954 67.8451 16.2198 77.7455C169.764 100.393 304.829 152.075 462.55 132.813C545.998 122.605 620.989 100.804 696.185 63.5105C752.825 35.4252 806.8 7.00644 871.693 6.18568C997.839 4.64676 1045.48 114.911 1096.28 212.17C1118.22 254.183 1144.59 308.84 1189.29 331.36C1272.22 373.167 1359.67 299.53 1421.03 252.67" stroke="url(#paint35_linear_8504_2126)" stroke-miterlimit="10"/>
<path d="M-501.154 164.464C-409.479 83.696 -304.425 -1.40634 -177.177 -9.81912C-108.568 -14.3589 -36.3454 6.05742 30.4184 19.9077C180.579 51.0452 305.598 145.766 465.062 128.53C547.049 119.681 619.451 92.9808 688.189 47.9417C743.65 11.5975 794.472 -27.3628 863.337 -31.3897C992.226 -38.9047 1039.43 89.1592 1086.46 186.342C1108.81 232.484 1134.47 288.296 1180.55 315.612C1263.3 364.652 1358.72 287.167 1421.03 240.999" stroke="url(#paint36_linear_8504_2126)" stroke-miterlimit="10"/>
<path d="M-501.154 147.741C-344.279 9.85342 -178.946 -96.4604 34.6215 -44.8039C186.653 -8.02371 303.752 135.019 468.701 121.528C552.277 114.68 622.681 81.1055 686.266 27.9358C736.064 -13.6921 780.427 -59.3468 848.37 -66.7079C977.951 -80.7378 1025.44 50.4297 1069.86 147.484C1094.1 200.449 1120.35 266.699 1172.96 298.247C1257.79 349.109 1356.31 270.957 1421 223.866" stroke="url(#paint37_linear_8504_2126)" stroke-miterlimit="10"/>
<path d="M-501.154 125.016C-350.199 -4.04817 -156.008 -146.809 55.176 -87.6116C203.415 -46.0607 315.414 112.166 478.338 103.805C559.812 99.6238 629.037 60.5609 686.548 5.21102C732.168 -38.6739 772.944 -88.1759 840.041 -95.614C964.342 -109.439 1014.93 20.036 1058.73 112.089C1084.95 167.157 1112.43 234.562 1166.35 268.444C1252.69 322.691 1352.42 248.617 1421 200.808" stroke="url(#paint38_linear_8504_2126)" stroke-miterlimit="10"/>
<path d="M-501.154 101.265C-349.661 -22.31 -150.779 -158.761 57.0726 -107.515C209.847 -69.8627 330.868 87.1586 496.278 76.4118C571.243 71.5385 634.06 35.0918 686.702 -16.3082C728.708 -57.3205 765.537 -104.052 826.867 -114.081C949.195 -134.087 1009.63 -1.35504 1057.09 86.6713C1084.36 137.199 1113.94 195.755 1163.43 228.355C1249.98 285.372 1347.37 222.25 1421.03 174.8" stroke="url(#paint39_linear_8504_2126)" stroke-miterlimit="10"/>
<path d="M-501.154 77.5147C-346.79 -41.7004 -138.221 -173.535 68.0931 -121.006C218.1 -82.8153 346.502 60.5096 508.375 51.7121C577.394 47.9674 637.827 11.1615 686.087 -35.673C724.761 -73.197 759.181 -117.903 814.745 -129.675C935.15 -155.17 1004.4 -21.4123 1056.84 62.0998C1088.36 112.294 1121.32 167.542 1175.45 195.935C1261.1 240.846 1346.29 191.267 1421.03 146.869" stroke="url(#paint40_linear_8504_2126)" stroke-miterlimit="10"/>
<path d="M-501.154 53.764C-341.844 -61.7321 -128.2 -183.025 77.909 -131.933C226.481 -95.101 360.341 37.6053 519.729 26.7046C583.929 22.3187 638.801 -9.97301 684.677 -53.1398C723.249 -89.4327 757.9 -133.677 813.002 -143.859C927.487 -165.045 1002.07 -39.4434 1057.94 38.3748C1090 83.0292 1123.99 128.581 1172.86 155.641C1257.9 202.68 1343.6 159.616 1421.03 117.347" stroke="url(#paint41_linear_8504_2126)" stroke-miterlimit="10"/>
<path d="M-501.154 30.0133C-340.742 -78.0959 -133.762 -182.46 67.3754 -144.526C223.046 -115.158 363.724 15.0345 527.212 3.56952C589.209 -0.790754 642.005 -32.4413 687.163 -73.1201C724.095 -106.412 757.643 -144.783 808.824 -154.452C914.775 -174.484 993.661 -66.2975 1051.89 4.39028C1090 50.6862 1131.65 101.496 1188.67 125.17C1269.3 158.642 1348.68 122.887 1421.05 86.62" stroke="url(#paint42_linear_8504_2126)" stroke-miterlimit="10"/>
<path d="M-501.154 6.2626C-336.744 -95.4601 -125.483 -188.796 73.7827 -150.656C225.686 -121.57 373.284 -6.04877 532.159 -17.7702C647.541 -26.2856 697.902 -139.473 801.905 -162.403C906.471 -185.436 991.611 -83.5078 1055.89 -17.5394C1094.54 22.1392 1134.88 63.8183 1187.06 85.3632C1267.84 118.706 1346.24 89.1335 1421 55.0208" stroke="url(#paint43_linear_8504_2126)" stroke-miterlimit="10"/>
<path d="M-501.154 -17.4881C-332.412 -111.901 -125.15 -188.539 72.2449 -156.76C225.379 -132.112 375.693 -27.3885 534.26 -39.2638C643.184 -47.4201 701.413 -149.117 801.956 -168.841C899.987 -188.052 984.332 -107.13 1051.66 -48.01C1093.23 -11.4863 1136.01 26.8329 1188.37 47.121C1268.56 78.2072 1345.27 54.3539 1421.05 22.9856" stroke="url(#paint44_linear_8504_2126)" stroke-miterlimit="10"/>
<path d="M-501.154 -41.2388C-329.875 -126.187 -124.919 -188.924 68.9132 -161.275C222.149 -139.422 376.026 -48.8308 533.286 -60.2444C637.802 -67.8365 705.411 -156.068 804.109 -174.022C901.474 -191.745 990.15 -118.621 1062.96 -65.1946C1102.51 -36.186 1143.72 -6.84386 1190.36 9.6739C1270.76 38.144 1344.14 19.3691 1421.03 -9.15225" stroke="url(#paint45_linear_8504_2126)" stroke-miterlimit="10"/>
</g>
<defs>
<linearGradient id="paint0_linear_8504_2126" x1="459.949" y1="907.276" x2="459.949" y2="1027.47" gradientUnits="userSpaceOnUse">
<stop stop-color="#333333"/>
<stop offset="1" stop-color="#333333" stop-opacity="0"/>
</linearGradient>
<linearGradient id="paint1_linear_8504_2126" x1="459.936" y1="855.582" x2="459.936" y2="1008.45" gradientUnits="userSpaceOnUse">
<stop stop-color="#333333"/>
<stop offset="1" stop-color="#333333" stop-opacity="0"/>
</linearGradient>
<linearGradient id="paint2_linear_8504_2126" x1="459.936" y1="802.824" x2="459.936" y2="993.264" gradientUnits="userSpaceOnUse">
<stop stop-color="#333333"/>
<stop offset="1" stop-color="#333333" stop-opacity="0"/>
</linearGradient>
<linearGradient id="paint3_linear_8504_2126" x1="459.923" y1="755.685" x2="459.923" y2="979.813" gradientUnits="userSpaceOnUse">
<stop stop-color="#333333"/>
<stop offset="1" stop-color="#333333" stop-opacity="0"/>
</linearGradient>
<linearGradient id="paint4_linear_8504_2126" x1="459.936" y1="713.861" x2="459.936" y2="967.655" gradientUnits="userSpaceOnUse">
<stop stop-color="#333333"/>
<stop offset="1" stop-color="#333333" stop-opacity="0"/>
</linearGradient>
<linearGradient id="paint5_linear_8504_2126" x1="459.936" y1="672.197" x2="459.936" y2="956.293" gradientUnits="userSpaceOnUse">
<stop stop-color="#333333"/>
<stop offset="1" stop-color="#333333" stop-opacity="0"/>
</linearGradient>
<linearGradient id="paint6_linear_8504_2126" x1="459.936" y1="631.397" x2="459.936" y2="945.325" gradientUnits="userSpaceOnUse">
<stop stop-color="#333333"/>
<stop offset="1" stop-color="#333333" stop-opacity="0"/>
</linearGradient>
<linearGradient id="paint7_linear_8504_2126" x1="459.923" y1="594.147" x2="459.923" y2="933.924" gradientUnits="userSpaceOnUse">
<stop stop-color="#333333"/>
<stop offset="1" stop-color="#333333" stop-opacity="0"/>
</linearGradient>
<linearGradient id="paint8_linear_8504_2126" x1="459.936" y1="558.476" x2="459.936" y2="922.208" gradientUnits="userSpaceOnUse">
<stop stop-color="#333333"/>
<stop offset="1" stop-color="#333333" stop-opacity="0"/>
</linearGradient>
<linearGradient id="paint9_linear_8504_2126" x1="459.936" y1="524.304" x2="459.936" y2="909.902" gradientUnits="userSpaceOnUse">
<stop stop-color="#333333"/>
<stop offset="1" stop-color="#333333" stop-opacity="0"/>
</linearGradient>
<linearGradient id="paint10_linear_8504_2126" x1="459.949" y1="490.449" x2="459.949" y2="896.387" gradientUnits="userSpaceOnUse">
<stop stop-color="#333333"/>
<stop offset="1" stop-color="#333333" stop-opacity="0"/>
</linearGradient>
<linearGradient id="paint11_linear_8504_2126" x1="459.936" y1="466.805" x2="459.936" y2="870.968" gradientUnits="userSpaceOnUse">
<stop stop-color="#333333"/>
<stop offset="1" stop-color="#333333" stop-opacity="0"/>
</linearGradient>
<linearGradient id="paint12_linear_8504_2126" x1="459.949" y1="450.878" x2="459.949" y2="837.95" gradientUnits="userSpaceOnUse">
<stop stop-color="#333333"/>
<stop offset="1" stop-color="#333333" stop-opacity="0"/>
</linearGradient>
<linearGradient id="paint13_linear_8504_2126" x1="459.949" y1="435.077" x2="459.949" y2="808.564" gradientUnits="userSpaceOnUse">
<stop stop-color="#333333"/>
<stop offset="1" stop-color="#333333" stop-opacity="0"/>
</linearGradient>
<linearGradient id="paint14_linear_8504_2126" x1="459.923" y1="416.648" x2="459.923" y2="782.719" gradientUnits="userSpaceOnUse">
<stop stop-color="#333333"/>
<stop offset="1" stop-color="#333333" stop-opacity="0"/>
</linearGradient>
<linearGradient id="paint15_linear_8504_2126" x1="459.936" y1="398.525" x2="459.936" y2="760.442" gradientUnits="userSpaceOnUse">
<stop stop-color="#333333"/>
<stop offset="1" stop-color="#333333" stop-opacity="0"/>
</linearGradient>
<linearGradient id="paint16_linear_8504_2126" x1="459.949" y1="378.068" x2="459.949" y2="740.652" gradientUnits="userSpaceOnUse">
<stop stop-color="#333333"/>
<stop offset="1" stop-color="#333333" stop-opacity="0"/>
</linearGradient>
<linearGradient id="paint17_linear_8504_2126" x1="459.949" y1="357.196" x2="459.949" y2="724.626" gradientUnits="userSpaceOnUse">
<stop stop-color="#333333"/>
<stop offset="1" stop-color="#333333" stop-opacity="0"/>
</linearGradient>
<linearGradient id="paint18_linear_8504_2126" x1="459.949" y1="334.939" x2="459.949" y2="710.007" gradientUnits="userSpaceOnUse">
<stop stop-color="#333333"/>
<stop offset="1" stop-color="#333333" stop-opacity="0"/>
</linearGradient>
<linearGradient id="paint19_linear_8504_2126" x1="459.949" y1="309.793" x2="459.949" y2="695.063" gradientUnits="userSpaceOnUse">
<stop stop-color="#333333"/>
<stop offset="1" stop-color="#333333" stop-opacity="0"/>
</linearGradient>
<linearGradient id="paint20_linear_8504_2126" x1="459.936" y1="282.893" x2="459.936" y2="677.385" gradientUnits="userSpaceOnUse">
<stop stop-color="#333333"/>
<stop offset="1" stop-color="#333333" stop-opacity="0"/>
</linearGradient>
<linearGradient id="paint21_linear_8504_2126" x1="459.949" y1="257.284" x2="459.949" y2="653.644" gradientUnits="userSpaceOnUse">
<stop stop-color="#333333"/>
<stop offset="1" stop-color="#333333" stop-opacity="0"/>
</linearGradient>
<linearGradient id="paint22_linear_8504_2126" x1="459.923" y1="231.77" x2="459.923" y2="622.705" gradientUnits="userSpaceOnUse">
<stop stop-color="#333333"/>
<stop offset="1" stop-color="#333333" stop-opacity="0"/>
</linearGradient>
<linearGradient id="paint23_linear_8504_2126" x1="459.936" y1="199.456" x2="459.936" y2="581.516" gradientUnits="userSpaceOnUse">
<stop stop-color="#333333"/>
<stop offset="1" stop-color="#333333" stop-opacity="0"/>
</linearGradient>
<linearGradient id="paint24_linear_8504_2126" x1="459.936" y1="162.891" x2="459.936" y2="526.749" gradientUnits="userSpaceOnUse">
<stop stop-color="#333333"/>
<stop offset="1" stop-color="#333333" stop-opacity="0"/>
</linearGradient>
<linearGradient id="paint25_linear_8504_2126" x1="459.936" y1="145.996" x2="459.936" y2="499.703" gradientUnits="userSpaceOnUse">
<stop stop-color="#333333"/>
<stop offset="1" stop-color="#333333" stop-opacity="0"/>
</linearGradient>
<linearGradient id="paint26_linear_8504_2126" x1="459.923" y1="133.492" x2="459.923" y2="470.225" gradientUnits="userSpaceOnUse">
<stop stop-color="#333333"/>
<stop offset="1" stop-color="#333333" stop-opacity="0"/>
</linearGradient>
<linearGradient id="paint27_linear_8504_2126" x1="459.936" y1="124.468" x2="459.936" y2="440.291" gradientUnits="userSpaceOnUse">
<stop stop-color="#333333"/>
<stop offset="1" stop-color="#333333" stop-opacity="0"/>
</linearGradient>
<linearGradient id="paint28_linear_8504_2126" x1="459.923" y1="117.697" x2="459.923" y2="418.522" gradientUnits="userSpaceOnUse">
<stop stop-color="#333333"/>
<stop offset="1" stop-color="#333333" stop-opacity="0"/>
</linearGradient>
<linearGradient id="paint29_linear_8504_2126" x1="459.949" y1="118.22" x2="459.949" y2="400.632" gradientUnits="userSpaceOnUse">
<stop stop-color="#333333"/>
<stop offset="1" stop-color="#333333" stop-opacity="0"/>
</linearGradient>
<linearGradient id="paint30_linear_8504_2126" x1="459.936" y1="112.015" x2="459.936" y2="386.086" gradientUnits="userSpaceOnUse">
<stop stop-color="#333333"/>
<stop offset="1" stop-color="#333333" stop-opacity="0"/>
</linearGradient>
<linearGradient id="paint31_linear_8504_2126" x1="459.936" y1="104.11" x2="459.936" y2="380.873" gradientUnits="userSpaceOnUse">
<stop stop-color="#333333"/>
<stop offset="1" stop-color="#333333" stop-opacity="0"/>
</linearGradient>
<linearGradient id="paint32_linear_8504_2126" x1="459.923" y1="93.2809" x2="459.923" y2="372.089" gradientUnits="userSpaceOnUse">
<stop stop-color="#333333"/>
<stop offset="1" stop-color="#333333" stop-opacity="0"/>
</linearGradient>
<linearGradient id="paint33_linear_8504_2126" x1="459.936" y1="78.5073" x2="459.936" y2="363.394" gradientUnits="userSpaceOnUse">
<stop stop-color="#333333"/>
<stop offset="1" stop-color="#333333" stop-opacity="0"/>
</linearGradient>
<linearGradient id="paint34_linear_8504_2126" x1="459.961" y1="44.7526" x2="459.961" y2="354.338" gradientUnits="userSpaceOnUse">
<stop stop-color="#333333"/>
<stop offset="1" stop-color="#333333" stop-opacity="0"/>
</linearGradient>
<linearGradient id="paint35_linear_8504_2126" x1="459.936" y1="6.16975" x2="459.936" y2="343.744" gradientUnits="userSpaceOnUse">
<stop stop-color="#333333"/>
<stop offset="1" stop-color="#333333" stop-opacity="0"/>
</linearGradient>
<linearGradient id="paint36_linear_8504_2126" x1="459.936" y1="-31.7057" x2="459.936" y2="331.296" gradientUnits="userSpaceOnUse">
<stop stop-color="#333333"/>
<stop offset="1" stop-color="#333333" stop-opacity="0"/>
</linearGradient>
<linearGradient id="paint37_linear_8504_2126" x1="459.923" y1="-67.7458" x2="459.923" y2="314.815" gradientUnits="userSpaceOnUse">
<stop stop-color="#333333"/>
<stop offset="1" stop-color="#333333" stop-opacity="0"/>
</linearGradient>
<linearGradient id="paint38_linear_8504_2126" x1="459.923" y1="-101.399" x2="459.923" y2="287.485" gradientUnits="userSpaceOnUse">
<stop stop-color="#333333"/>
<stop offset="1" stop-color="#333333" stop-opacity="0"/>
</linearGradient>
<linearGradient id="paint39_linear_8504_2126" x1="459.936" y1="-118.585" x2="459.936" y2="250.975" gradientUnits="userSpaceOnUse">
<stop stop-color="#333333"/>
<stop offset="1" stop-color="#333333" stop-opacity="0"/>
</linearGradient>
<linearGradient id="paint40_linear_8504_2126" x1="459.936" y1="-132.878" x2="459.936" y2="213.624" gradientUnits="userSpaceOnUse">
<stop stop-color="#333333"/>
<stop offset="1" stop-color="#333333" stop-opacity="0"/>
</linearGradient>
<linearGradient id="paint41_linear_8504_2126" x1="459.936" y1="-146.231" x2="459.936" y2="176.119" gradientUnits="userSpaceOnUse">
<stop stop-color="#333333"/>
<stop offset="1" stop-color="#333333" stop-opacity="0"/>
</linearGradient>
<linearGradient id="paint42_linear_8504_2126" x1="459.949" y1="-156.885" x2="459.949" y2="138.513" gradientUnits="userSpaceOnUse">
<stop stop-color="#333333"/>
<stop offset="1" stop-color="#333333" stop-opacity="0"/>
</linearGradient>
<linearGradient id="paint43_linear_8504_2126" x1="459.923" y1="-165.726" x2="459.923" y2="99.9729" gradientUnits="userSpaceOnUse">
<stop stop-color="#333333"/>
<stop offset="1" stop-color="#333333" stop-opacity="0"/>
</linearGradient>
<linearGradient id="paint44_linear_8504_2126" x1="459.949" y1="-171.724" x2="459.949" y2="61.6519" gradientUnits="userSpaceOnUse">
<stop stop-color="#333333"/>
<stop offset="1" stop-color="#333333" stop-opacity="0"/>
</linearGradient>
<linearGradient id="paint45_linear_8504_2126" x1="459.936" y1="-176.728" x2="459.936" y2="23.8127" gradientUnits="userSpaceOnUse">
<stop stop-color="#333333"/>
<stop offset="1" stop-color="#333333" stop-opacity="0"/>
</linearGradient>
<clipPath id="clip0_8504_2126">
<rect width="1924" height="1286" fill="white" transform="translate(-502 -186)"/>
</clipPath>
</defs>
</svg>
